<svg fill="#FFFFFF" xmlns="http://www.w3.org/2000/svg" xmlns:xlink="http://www.w3.org/1999/xlink" version="1.1" x="0px" y="0px" viewBox="0 0 100 100" style="enable-background:new 0 0 100 100;" xml:space="preserve"><title>Artboard 9</title><path d="M4.7,40.4c4.9,0.9,9.9,1.4,14.9,1.4c9,0.1,18-1.7,26.4-5.1v16.7l5.9,2.8l2,1V36.7c8.4,3.4,17.4,5.1,26.4,5  c5,0,10-0.5,14.9-1.4c1.5-0.3,2.7-1.5,3-3c0.3-1.6-0.5-3.1-1.8-3.9c-6.6-3.7-12.2-8.9-16.5-15.1c-0.8-1.2-2-2-3.4-2.2  c-1.4-0.2-2.9,0.1-4,1c-5.6,4-11.8,7.2-18.4,9.3v-6c5.1-2.2,7.5-8.1,5.3-13.2C57.1,2,51.2-0.3,46.1,1.8s-7.5,8.1-5.3,13.2  c1,2.4,2.9,4.3,5.3,5.3v6c-6.6-2.1-12.8-5.2-18.5-9.3c-1.1-0.9-2.6-1.2-4-1c-1.4,0.2-2.6,1-3.4,2.2c-4.3,6.3-10,11.4-16.7,15.2  c-1.4,0.8-2.1,2.4-1.8,3.9C2,38.9,3.2,40.1,4.7,40.4z"></path><path d="M54,95V79l-8-3.7V95c0,2.2,1.8,4,4,4S54,97.2,54,95z"></path><path d="M57,58.5l9.2,4.3c4.8-2.8,6.4-8.9,3.6-13.7c-1-1.7-2.5-3.1-4.3-4c-1.8-1.2-4.3-0.7-5.5,1.1c-1.2,1.8-0.7,4.3,1.1,5.5  c0.3,0.2,0.6,0.4,1,0.5c1,0.5,1.5,1.8,1,2.8c-0.2,0.4-0.6,0.8-1,1L57,58.5z"></path><path d="M34.5,87.2c2.1,0.7,4.4-0.4,5.1-2.5c0.6-1.8-0.1-3.7-1.7-4.7c-1-0.5-1.5-1.8-1-2.8c0.2-0.4,0.6-0.8,1-1l5.1-2.4l-9.2-4.3  c-4.8,2.8-6.4,8.9-3.6,13.7C31.1,84.9,32.7,86.3,34.5,87.2z"></path><path d="M37.9,52.3c2.1-0.7,3.3-2.9,2.6-5c-0.7-2.1-2.9-3.3-5-2.6c-0.3,0.1-0.7,0.3-1,0.5c-5,2.4-7.1,8.3-4.8,13.3  c1,2.1,2.7,3.8,4.8,4.8L46,68.7l16,7.6c1,0.5,1.5,1.8,1,2.8c-0.2,0.4-0.6,0.8-1,1c-2.1,0.7-3.3,2.9-2.6,5c0.7,2.1,2.9,3.3,5,2.6  c0.3-0.1,0.7-0.3,1-0.5c5-2.4,7.1-8.3,4.8-13.3c-1-2.1-2.7-3.8-4.8-4.8l-16-7.5l-11.5-5.4c-1-0.5-1.5-1.8-1-2.8  C37.1,52.9,37.4,52.5,37.9,52.3L37.9,52.3z"></path></svg>